<svg width="20" height="20" viewBox="0 0 20 20" fill="none" xmlns="http://www.w3.org/2000/svg">
<rect width="20" height="20" rx="6" fill="#F9F9F9"/>
<g clip-path="url(#clip0_7619_132603)">
<mask id="mask0_7619_132603" style="mask-type:luminance" maskUnits="userSpaceOnUse" x="4" y="4" width="12" height="12">
<path d="M15.9776 4.02246H4V16.0001H15.9776V4.02246Z" fill="white"/>
</mask>
<g mask="url(#mask0_7619_132603)">
<path d="M5.97138 9.29289C5.96592 8.94583 6.07877 8.60725 6.29138 8.33289L8.47378 10.5153C8.19871 10.7265 7.86061 10.8392 7.51378 10.8353C7.10524 10.8336 6.71391 10.6706 6.42501 10.3817C6.13612 10.0928 5.97308 9.70145 5.97138 9.29289Z" fill="#24292E"/>
<path d="M12.4641 10.8337C12.6684 10.8345 12.8709 10.7949 13.0599 10.7172C13.2489 10.6394 13.4205 10.525 13.5651 10.3806C13.7097 10.2362 13.8242 10.0646 13.9022 9.87573C13.9801 9.68684 14.0199 9.4844 14.0193 9.28007C14.0231 8.93327 13.9104 8.59522 13.6993 8.32007L11.5105 10.5089C11.7826 10.7217 12.1187 10.8362 12.4641 10.8337Z" fill="#24292E"/>
<path d="M14.152 7.87684C14.4885 8.27194 14.6734 8.7739 14.6736 9.29284C14.6732 9.87647 14.441 10.436 14.0282 10.8486C13.6154 11.2611 13.0556 11.4928 12.472 11.4928C11.9558 11.4934 11.4559 11.3115 11.0608 10.9792L10.0016 12.0384L8.9424 10.9792C8.54701 11.3121 8.04645 11.4941 7.5296 11.4928C7.23996 11.4939 6.95293 11.4378 6.68501 11.3277C6.41708 11.2176 6.17351 11.0558 5.96824 10.8514C5.76298 10.647 5.60005 10.4042 5.48881 10.1367C5.37758 9.86927 5.32021 9.5825 5.32001 9.29284C5.32042 8.77628 5.50219 8.27628 5.8336 7.88004L5.3392 7.38564L4.86721 6.90564C4.29863 7.84047 3.99858 8.91388 4.00001 10.008C3.99979 10.7945 4.15457 11.5733 4.45548 12.2999C4.75639 13.0265 5.19754 13.6866 5.75372 14.2427C6.30989 14.7987 6.9702 15.2397 7.69687 15.5404C8.42356 15.8411 9.20236 15.9957 9.9888 15.9952C11.5759 15.9948 13.098 15.3646 14.2208 14.243C15.3437 13.1213 15.9755 11.5999 15.9776 10.0128C15.9875 8.91886 15.6904 7.84404 15.12 6.91044L14.152 7.87684Z" fill="#24292E"/>
<path d="M14.3265 5.87846C13.7681 5.29129 13.0959 4.82392 12.351 4.50484C11.6061 4.18576 10.8041 4.02164 9.99372 4.02246C9.18319 4.02207 8.38105 4.18639 7.63596 4.50543C6.89087 4.82448 6.21837 5.29161 5.65932 5.87846C5.51372 6.03846 5.37133 6.19846 5.23853 6.36966L9.98892 11.1185L14.7393 6.36486C14.6139 6.19278 14.4759 6.0302 14.3265 5.87846ZM9.99372 10.0097L6.31372 6.32966C6.79485 5.8434 7.36813 5.45795 8.00001 5.19586C8.63188 4.93377 9.30965 4.8003 9.99372 4.80326C10.6779 4.7995 11.3559 4.93259 11.9879 5.19473C12.6199 5.45686 13.1931 5.84275 13.6737 6.32966L9.99372 10.0097Z" fill="#24292E"/>
</g>
</g>
<defs>
<clipPath id="clip0_7619_132603">
<rect width="12" height="12" fill="white" transform="translate(4 4)"/>
</clipPath>
</defs>
</svg>
