<svg width="20" height="20" viewBox="0 0 20 20" fill="none" xmlns="http://www.w3.org/2000/svg">
<rect width="20" height="20" rx="6" fill="#F9F9F9"/>
<g style="mix-blend-mode:multiply">
<path d="M10 4C6.6863 4 4 6.6863 4 10C4 13.3137 6.6863 16 10 16C13.3137 16 16 13.3137 16 10C16 6.68628 13.3137 4 10 4ZM10 13.0549V15.5604C7.62092 15.5604 5.69231 13.6318 5.69231 11.2527C5.69231 8.87368 7.62092 6.94506 10 6.94506V4.43956C12.3791 4.43956 14.3077 6.36817 14.3077 8.74725C14.3077 11.1263 12.3791 13.0549 10 13.0549ZM12.0659 9.98078V10.0192C11.1553 10.4731 10.473 11.1553 10.0192 12.0659H9.98081C9.52696 11.1553 8.84469 10.4731 7.93407 10.0192V9.98078C8.84469 9.52694 9.52696 8.84468 9.98081 7.93407H10.0192C10.473 8.84468 11.1553 9.52694 12.0659 9.98078Z" fill="#24292E"/>
</g>
</svg>
